<svg width="272.067529296875px" height="122.021240234375px" xmlns="http://www.w3.org/2000/svg" viewBox="113.96623535156249 13.9893798828125 272.067529296875 122.021240234375" style="background: rgba(0, 0, 0, 0);" preserveAspectRatio="xMidYMid"><defs><filter id="editing-hole" x="-100%" y="-100%" width="300%" height="300%"><feFlood flood-color="#000" result="black"></feFlood><feMorphology operator="dilate" radius="2" in="SourceGraphic" result="erode"></feMorphology><feGaussianBlur in="erode" stdDeviation="4" result="blur"></feGaussianBlur><feOffset in="blur" dx="2" dy="2" result="offset"></feOffset><feComposite operator="atop" in="offset" in2="black" result="merge"></feComposite><feComposite operator="in" in="merge" in2="SourceGraphic" result="inner-shadow"></feComposite></filter></defs><g filter="url(#editing-hole)"><g transform="translate(156.1800034046173, 98.9921875)"><path d="M2.30-9.47L2.30-9.47L2.30-9.47Q2.30-11.97 2.94-15.17L2.94-15.17L8.13-42.24L22.27-42.24L17.15-14.98L17.15-14.98Q16.58-11.97 16.58-9.76L16.58-9.76L16.58-9.76Q16.58-7.55 17.50-6.40L17.50-6.40L17.50-6.40Q18.43-5.25 20.16-5.25L20.16-5.25L20.16-5.25Q21.89-5.25 22.98-5.70L22.98-5.70L22.98-5.70Q24.06-6.14 24.96-7.23L24.96-7.23L24.96-7.23Q26.69-9.41 27.78-14.98L27.78-14.98L32.96-42.24L42.62-42.24L37.50-15.04L37.50-15.04Q35.71-5.95 30.78-2.30L30.78-2.30L30.78-2.30Q25.98 1.28 16.51 1.28L16.51 1.28L16.51 1.28Q9.41 1.28 5.63-1.79L5.63-1.79L5.63-1.79Q2.30-4.48 2.30-9.47ZM70.98 1.28L70.98 1.28L70.98 1.28Q63.23 1.28 63.23-4.74L63.23-4.74L63.23-4.74Q63.30-6.40 63.81-9.22L63.81-9.22L64.96-15.10L64.96-15.10Q66.69-23.42 66.69-25.28L66.69-25.28L66.69-25.28Q66.69-28.99 64.51-28.99L64.51-28.99L64.51-28.99Q60.86-28.99 58.94-19.46L58.94-19.46L55.17 0L42.30 1.28L48.96-32.70L59.46-33.92L58.43-27.65L58.43-27.65Q61.44-33.92 70.66-33.92L70.66-33.92L70.66-33.92Q75.14-33.92 77.02-32.03L77.02-32.03L77.02-32.03Q78.91-30.14 78.91-25.92L78.91-25.92L78.91-25.92Q78.91-21.95 76.86-12.67L76.86-12.67L76.86-12.67Q75.90-8.51 75.90-6.94L75.90-6.94L75.90-6.94Q75.90-5.38 76.77-4.48L76.77-4.48L76.77-4.48Q77.63-3.58 78.91-3.46L78.91-3.46L78.91-3.46Q78.27-1.28 76.06 0L76.06 0L76.06 0Q73.86 1.28 70.98 1.28ZM109.95-10.82L109.95-10.82L109.95-10.82Q111.55-9.73 111.55-7.33L111.55-7.33L111.55-7.33Q111.55-4.93 110.34-3.39L110.34-3.39L110.34-3.39Q109.12-1.86 107.14-0.83L107.14-0.83L107.14-0.83Q103.04 1.28 98.62 1.28L98.62 1.28L98.62 1.28Q94.21 1.28 91.62 0.32L91.62 0.32L91.62 0.32Q89.02-0.64 87.30-2.43L87.30-2.43L87.30-2.43Q83.90-5.82 83.90-12.03L83.90-12.03L83.90-12.03Q83.90-21.70 89.15-27.58L89.15-27.58L89.15-27.58Q94.78-33.92 104.58-33.92L104.58-33.92L104.58-33.92Q110.66-33.92 113.66-31.36L113.66-31.36L113.66-31.36Q115.90-29.44 115.90-26.30L115.90-26.30L115.90-26.30Q115.90-15.04 96.45-15.04L96.45-15.04L96.45-15.04Q96.19-13.38 96.19-11.97L96.19-11.97L96.19-11.97Q96.19-9.02 97.50-7.90L97.50-7.90L97.50-7.90Q98.82-6.78 101.25-6.78L101.25-6.78L101.25-6.78Q103.68-6.78 106.27-7.90L106.27-7.90L106.27-7.90Q108.86-9.02 109.95-10.82ZM96.90-17.79L96.90-17.79L96.90-17.79Q101.44-17.79 104.06-20.61L104.06-20.61L104.06-20.61Q106.69-23.30 106.69-27.58L106.69-27.58L106.69-27.58Q106.69-29.06 106.14-29.86L106.14-29.86L106.14-29.86Q105.60-30.66 104.51-30.66L104.51-30.66L104.51-30.66Q103.42-30.66 102.50-30.24L102.50-30.24L102.50-30.24Q101.57-29.82 100.61-28.42L100.61-28.42L100.61-28.42Q98.24-25.22 96.90-17.79ZM143.04-37.12L143.04-37.12L143.04-37.12Q143.94-38.66 143.94-40.32L143.94-40.32L143.94-40.32Q143.94-43.26 142.14-43.26L142.14-43.26L142.14-43.26Q139.39-43.26 138.24-37.63L138.24-37.63L137.28-32.64L143.10-32.64L142.72-29.76L136.70-29.76L130.94 0L118.02 1.28L124.16-29.76L119.62-29.76L120.19-32.64L124.67-32.64L126.02-37.70L126.02-37.70Q127.17-42.37 132.10-44.54L132.10-44.54L132.10-44.54Q135.68-46.08 141.70-46.08L141.70-46.08L141.70-46.08Q147.71-46.08 150.40-44.54L150.40-44.54L150.40-44.54Q153.09-43.01 153.09-40.96L153.09-40.96L153.09-40.96Q153.09-38.91 151.49-37.63L151.49-37.63L151.49-37.63Q149.89-36.35 148.10-36.35L148.10-36.35L148.10-36.35Q144.58-36.35 143.04-37.12ZM143.55-6.40L143.55-6.40L143.55-6.40Q143.55-8.13 144.45-12.48L144.45-12.48L147.84-29.76L144.06-29.76L144.32-31.68L144.32-31.68Q152-33.98 159.42-39.62L159.42-39.62L162.50-39.62L160.96-32.64L165.95-32.64L165.38-29.76L160.45-29.76L157.18-12.48L157.18-12.48Q156.35-8.51 156.35-7.17L156.35-7.17L156.35-7.17Q156.35-4.10 159.04-3.46L159.04-3.46L159.04-3.46Q158.40-1.28 156.10 0L156.10 0L156.10 0Q153.79 1.28 150.53 1.28L150.53 1.28L150.53 1.28Q147.26 1.28 145.41-0.77L145.41-0.77L145.41-0.77Q143.55-2.82 143.55-6.40ZM180.99-3.52L180.99-3.52L180.99-3.52Q179.01 1.28 172.67 1.28L172.67 1.28L172.67 1.28Q169.41 1.28 167.36-0.96L167.36-0.96L167.36-0.96Q165.63-2.94 165.63-4.93L165.63-4.93L165.63-4.93Q165.63-10.11 168.00-20.22L168.00-20.22L170.37-32.64L183.36-33.92L179.46-13.70L179.46-13.70Q178.37-8.96 178.37-7.30L178.37-7.30L178.37-7.30Q178.37-3.65 180.99-3.52ZM171.52-41.54L171.52-41.54L171.52-41.54Q171.52-44.03 173.60-45.38L173.60-45.38L173.60-45.38Q175.68-46.72 178.69-46.72L178.69-46.72L178.69-46.72Q181.70-46.72 183.52-45.38L183.52-45.38L183.52-45.38Q185.34-44.03 185.34-41.54L185.34-41.54L185.34-41.54Q185.34-39.04 183.33-37.76L183.33-37.76L183.33-37.76Q181.31-36.48 178.30-36.48L178.30-36.48L178.30-36.48Q175.30-36.48 173.41-37.76L173.41-37.76L173.41-37.76Q171.52-39.04 171.52-41.54Z" fill="#ccc"></path></g></g><style>text {
  font-size: 64px;
  font-family: Arial Black;
  dominant-baseline: central;
  text-anchor: middle;
}</style></svg>